<svg width="42" height="38" viewBox="0 0 42 38" fill="none" xmlns="http://www.w3.org/2000/svg">
<path d="M0.159668 37.8495C5.42569 25.4187 10.6398 13.114 15.8761 0.757417C19.0209 0.757417 22.1583 0.764834 25.2956 0.75C25.8222 0.75 25.9112 1.11343 26.0596 1.45461C27.4391 4.68839 28.8038 7.92959 30.1834 11.1708C32.0821 15.6432 33.9883 20.1082 35.8796 24.5806C37.7264 28.9492 39.5658 33.3251 41.4126 37.6937C41.2198 37.9681 40.9602 37.8495 40.7525 37.8495C37.9341 37.8569 35.1231 37.8495 32.3046 37.8569C31.0808 37.8569 30.265 37.271 29.7977 36.1807C29.1969 34.764 28.5962 33.3474 28.0547 31.9159C27.8693 31.4264 27.6246 31.2262 27.1054 31.2855C26.4972 31.3522 25.889 31.241 25.2734 31.4487C24.9396 31.5599 24.5688 31.5303 24.324 31.0778C24.0273 30.5364 23.4785 30.2026 22.8926 29.9949C22.4179 29.8244 22.2324 29.5128 22.3659 29.053C22.9222 27.132 22.8258 25.1294 23.1225 23.1343C26.7123 24.3581 30.3021 25.5819 34.055 26.8576C34.055 25.8489 34.055 25.0627 34.055 24.2765C34.055 24.0466 33.9438 23.9502 33.7287 23.8241C31.6074 22.6077 29.5085 21.3616 27.3946 20.1378C26.1115 19.3962 24.8135 18.6915 23.523 17.9721C23.1521 17.7644 23.0409 17.4455 23.0483 17.0153C23.0706 15.213 23.0186 13.4033 23.0706 11.601C23.1076 10.3994 22.6404 9.38331 22.0619 8.41169C21.5353 7.52907 20.1335 7.56616 19.5846 8.45619C18.9838 9.42781 18.4721 10.3846 18.5759 11.6455C18.7094 13.292 18.5536 14.9608 18.6352 16.6074C18.6723 17.3713 18.3905 17.7867 17.7823 18.1353C15.3273 19.5222 12.8871 20.9166 10.4395 22.3184C9.65334 22.7634 8.87456 23.2233 8.08836 23.6683C7.83619 23.8092 7.68043 23.9947 7.68043 24.2913C7.68043 25.0849 7.68043 25.8711 7.68043 26.7983C11.3666 25.5374 14.9342 24.3136 18.6204 23.0527C18.5611 24.677 18.5759 26.2123 18.9987 27.6586C19.4363 29.1346 19.0283 29.9208 17.7304 30.7366C16.8997 31.2558 16.2915 31.6193 15.3495 31.3152C15.0306 31.2113 14.6375 31.3448 14.2889 31.2855C13.7326 31.1965 13.4731 31.4932 13.3025 31.9308C12.7907 33.2436 12.2938 34.5638 11.782 35.884C11.2554 37.2413 10.3209 37.8643 8.83747 37.8643C6.28605 37.8643 3.74204 37.8643 1.19062 37.8643H0.174499L0.159668 37.8495Z" fill="#AA202F"/>
</svg>
