<svg width="16" height="16" viewBox="0 0 16 16" fill="none" xmlns="http://www.w3.org/2000/svg">
<path fill-rule="evenodd" clip-rule="evenodd" d="M11.3332 3.33333H4.6665C4.48969 3.33333 4.32012 3.40357 4.1951 3.5286C4.07008 3.65362 3.99984 3.82319 3.99984 4V12C3.99984 12.1768 4.07008 12.3464 4.1951 12.4714C4.32012 12.5964 4.48969 12.6667 4.6665 12.6667H11.3332C11.51 12.6667 11.6796 12.5964 11.8046 12.4714C11.9296 12.3464 11.9998 12.1768 11.9998 12V4C11.9998 3.82319 11.9296 3.65362 11.8046 3.5286C11.6796 3.40357 11.51 3.33333 11.3332 3.33333ZM4.6665 2C4.13607 2 3.62736 2.21071 3.25229 2.58579C2.87722 2.96086 2.6665 3.46957 2.6665 4V12C2.6665 12.5304 2.87722 13.0391 3.25229 13.4142C3.62736 13.7893 4.13607 14 4.6665 14H11.3332C11.8636 14 12.3723 13.7893 12.7474 13.4142C13.1225 13.0391 13.3332 12.5304 13.3332 12V4C13.3332 3.46957 13.1225 2.96086 12.7474 2.58579C12.3723 2.21071 11.8636 2 11.3332 2H4.6665Z" fill="#667085"/>
<path d="M5.33301 4.6665H10.6663V5.99984H5.33301V4.6665ZM5.33301 7.33317H10.6663V8.6665H5.33301V7.33317ZM5.33301 9.99984H8.66634V11.3332H5.33301V9.99984Z" fill="#667085"/>
</svg>
