<svg width="17" height="17" viewBox="0 0 17 17" fill="none" xmlns="http://www.w3.org/2000/svg">
<path d="M13.5357 2.25586H2.50671C2.17431 2.25586 1.85554 2.3879 1.6205 2.62294C1.38546 2.85798 1.25342 3.17676 1.25342 3.50915V10.0263C1.25342 10.3587 1.38546 10.6774 1.6205 10.9125C1.85554 11.1475 2.17431 11.2795 2.50671 11.2795H13.5357C13.8681 11.2795 14.1868 11.1475 14.4219 10.9125C14.6569 10.6774 14.7889 10.3587 14.7889 10.0263V3.50915C14.7889 3.17676 14.6569 2.85798 14.4219 2.62294C14.1868 2.3879 13.8681 2.25586 13.5357 2.25586ZM13.285 9.7756H2.75737V3.75981H13.285V9.7756ZM14.7889 13.0342C14.7889 13.2336 14.7097 13.4249 14.5687 13.5659C14.4277 13.7069 14.2364 13.7861 14.037 13.7861H2.00539C1.80596 13.7861 1.61469 13.7069 1.47367 13.5659C1.33264 13.4249 1.25342 13.2336 1.25342 13.0342C1.25342 12.8347 1.33264 12.6435 1.47367 12.5024C1.61469 12.3614 1.80596 12.2822 2.00539 12.2822H14.037C14.2364 12.2822 14.4277 12.3614 14.5687 12.5024C14.7097 12.6435 14.7889 12.8347 14.7889 13.0342ZM6.51724 8.02099V5.51441C6.51719 5.38016 6.55309 5.24834 6.6212 5.13265C6.68931 5.01696 6.78715 4.92161 6.90457 4.85651C7.02198 4.79141 7.15468 4.75893 7.28889 4.76244C7.42309 4.76596 7.55391 4.80534 7.66776 4.87649L9.67302 6.12978C9.78128 6.19735 9.87057 6.29136 9.93247 6.40296C9.99437 6.51456 10.0269 6.64008 10.0269 6.7677C10.0269 6.89532 9.99437 7.02084 9.93247 7.13244C9.87057 7.24405 9.78128 7.33806 9.67302 7.40563L7.66776 8.65892C7.55391 8.73007 7.42309 8.76945 7.28889 8.77296C7.15468 8.77648 7.02198 8.74399 6.90457 8.67889C6.78715 8.61379 6.68931 8.51845 6.6212 8.40275C6.55309 8.28706 6.51719 8.15525 6.51724 8.02099Z" fill="white"/>
</svg>
