<svg width="17" height="19" viewBox="0 0 17 19" fill="none" xmlns="http://www.w3.org/2000/svg">
<path fill-rule="evenodd" clip-rule="evenodd" d="M7.82061 8.40238L3.57535 12.6993C-0.472995 9.78424 -1.1995 4.76365 2.19553 1.97829C5.37085 -0.626821 10.7973 -0.590071 14.8723 1.68269C15.329 1.93743 16.2452 2.49534 16.8883 3.10987C14.6076 2.71303 13.677 2.78665 10.2374 6.12637L2.64047 5.23243L1.16542 6.12637L7.82061 8.40238Z" fill="white"/>
<path fill-rule="evenodd" clip-rule="evenodd" d="M11.7956 7.9545L13.7482 6.44482C17.7106 9.47565 18.1071 14.1171 14.633 16.8032C11.1589 19.4893 4.0006 19.2646 0 14.5247C0 14.5247 0.349922 14.6657 0.768669 14.8344C1.63547 15.1836 2.62247 15.047 3.36184 14.4753C5.33104 12.9528 9.04517 10.0811 9.04517 10.0811L9.79129 17.242L11.0072 16.0187L11.7956 7.9545Z" fill="white"/>
</svg>
