<svg width="32" height="32" viewBox="0 0 32 32" fill="none" xmlns="http://www.w3.org/2000/svg">
<g clip-path="url(#clip0_330_838)">
<rect width="32" height="32" rx="8" fill="white"/>
<rect width="32" height="32" rx="8" fill="url(#paint0_linear_330_838)"/>
<path fill-rule="evenodd" clip-rule="evenodd" d="M15.9998 2.03861C8.28923 2.03861 2.03861 8.28923 2.03861 15.9998C2.03861 23.7103 8.28923 29.9609 15.9998 29.9609C23.7103 29.9609 29.9609 23.7103 29.9609 15.9998C29.9609 8.28923 23.7103 2.03861 15.9998 2.03861ZM1.96094 15.9998C1.96094 8.24634 8.24634 1.96094 15.9998 1.96094C23.7532 1.96094 30.0386 8.24634 30.0386 15.9998C30.0386 23.7532 23.7532 30.0386 15.9998 30.0386C8.24634 30.0386 1.96094 23.7532 1.96094 15.9998Z" fill="#D0D5DD"/>
<path fill-rule="evenodd" clip-rule="evenodd" d="M16 12.0777C13.8338 12.0777 12.0777 13.8338 12.0777 16C12.0777 18.1662 13.8338 19.9223 16 19.9223C18.1662 19.9223 19.9223 18.1662 19.9223 16C19.9223 13.8338 18.1662 12.0777 16 12.0777ZM12 16C12 13.7909 13.7909 12 16 12C18.2091 12 20 13.7909 20 16C20 18.2091 18.2091 20 16 20C13.7909 20 12 18.2091 12 16Z" fill="#D0D5DD"/>
<path fill-rule="evenodd" clip-rule="evenodd" d="M16 13.3199C14.52 13.3199 13.3203 14.5196 13.3203 15.9995C13.3203 17.4794 14.52 18.6791 16 18.6791C17.4799 18.6791 18.6796 17.4794 18.6796 15.9995C18.6796 14.5196 17.4799 13.3199 16 13.3199ZM13.2427 15.9995C13.2427 14.4767 14.4772 13.2422 16 13.2422C17.5228 13.2422 18.7572 14.4767 18.7572 15.9995C18.7572 17.5223 17.5228 18.7568 16 18.7568C14.4772 18.7568 13.2427 17.5223 13.2427 15.9995Z" fill="#D0D5DD"/>
<path d="M15.9609 0H16.0386V32H15.9609V0Z" fill="#D0D5DD"/>
<path d="M32 15.9609L32 16.0386L-3.39506e-09 16.0386L0 15.9609L32 15.9609Z" fill="#D0D5DD"/>
<path d="M26.6021 0H26.6797V32H26.6021V0Z" fill="#D0D5DD"/>
<path d="M10.6406 0H10.7183V32H10.6406V0Z" fill="#D0D5DD"/>
<path d="M21.2817 0H21.3594V32H21.2817V0Z" fill="#D0D5DD"/>
<path d="M5.32031 0H5.39798V32H5.32031V0Z" fill="#D0D5DD"/>
<path d="M32 26.6016L32 26.6792L-3.39506e-09 26.6792L0 26.6016L32 26.6016Z" fill="#D0D5DD"/>
<path d="M32 10.6406L32 10.7183L-3.39506e-09 10.7183L0 10.6406L32 10.6406Z" fill="#D0D5DD"/>
<path d="M32 21.2812L32 21.3589L-3.39506e-09 21.3589L0 21.2812L32 21.2812Z" fill="#D0D5DD"/>
<path d="M32 5.32031L32 5.39798L-3.39506e-09 5.39798L0 5.32031L32 5.32031Z" fill="#D0D5DD"/>
<path fill-rule="evenodd" clip-rule="evenodd" d="M15.245 15.2545L10.2712 20.2889C5.52808 16.8735 4.67689 10.9913 8.65457 7.72796C12.3748 4.67576 18.7326 4.71882 23.5068 7.38163C24.042 7.68008 25.1154 8.33374 25.8689 9.05373C23.1967 8.58878 22.1065 8.67505 18.0765 12.5879L9.17586 11.5406L7.44767 12.5879L15.245 15.2545Z" fill="#148CF9"/>
<path fill-rule="evenodd" clip-rule="evenodd" d="M19.9025 14.7297L22.1902 12.9609C26.8326 16.5119 27.2971 21.9499 23.2268 25.0969C19.1565 28.244 10.7697 27.9808 6.08252 22.4274C6.08252 22.4274 6.49249 22.5926 6.98311 22.7903C7.99866 23.1995 9.15505 23.0394 10.0213 22.3696C12.3284 20.5858 16.68 17.2213 16.68 17.2213L17.5542 25.6111L18.9787 24.1778L19.9025 14.7297Z" fill="#148CF9"/>
</g>
<defs>
<linearGradient id="paint0_linear_330_838" x1="16" y1="0" x2="16" y2="32" gradientUnits="userSpaceOnUse">
<stop stop-color="white"/>
<stop offset="1" stop-color="#D0D5DD"/>
</linearGradient>
<clipPath id="clip0_330_838">
<rect width="32" height="32" rx="8" fill="white"/>
</clipPath>
</defs>
</svg>
