<svg width="17" height="17" viewBox="0 0 17 17" fill="none" xmlns="http://www.w3.org/2000/svg">
<g clip-path="url(#clip0_330_878)">
<path d="M8.10503 1.33691C9.65146 1.33689 11.1501 1.87308 12.3455 2.85411C13.5409 3.83513 14.3592 5.20031 14.6609 6.71702C14.9626 8.23373 14.7291 9.80814 14.0001 11.172C13.2711 12.5358 12.0918 13.6047 10.6631 14.1965C9.23442 14.7883 7.64471 14.8664 6.16487 14.4175C4.68502 13.9687 3.4066 13.0205 2.54744 11.7347C1.68828 10.4489 1.30153 8.90501 1.45309 7.36603C1.60465 5.82704 2.28514 4.38822 3.37862 3.29472L5.26892 5.18502C4.61277 5.84105 4.2044 6.7043 4.11337 7.62767C4.02234 8.55105 4.2543 9.47742 4.76971 10.2489C5.28513 11.0205 6.05211 11.5894 6.93998 11.8588C7.82785 12.1283 8.78168 12.0815 9.63894 11.7265C10.4962 11.3715 11.2038 10.7303 11.6413 9.91205C12.0788 9.09381 12.219 8.14919 12.0381 7.23915C11.8572 6.32911 11.3663 5.50995 10.6492 4.92124C9.93199 4.33254 9.03288 4.01071 8.10503 4.0106V1.33691Z" fill="white"/>
<mask id="mask0_330_878" style="mask-type:luminance" maskUnits="userSpaceOnUse" x="0" y="0" width="16" height="16">
<path d="M0.752441 0.668457H15.4577V15.3737H0.752441V0.668457Z" fill="white"/>
<path d="M8.10503 1.33691C9.65146 1.33689 11.1501 1.87308 12.3455 2.85411C13.5409 3.83513 14.3592 5.20031 14.6609 6.71702C14.9626 8.23373 14.7291 9.80814 14.0001 11.172C13.2711 12.5358 12.0918 13.6047 10.6631 14.1965C9.23442 14.7883 7.64471 14.8664 6.16487 14.4175C4.68502 13.9687 3.4066 13.0205 2.54744 11.7347C1.68828 10.4489 1.30153 8.90501 1.45309 7.36603C1.60465 5.82704 2.28514 4.38822 3.37862 3.29472L5.26892 5.18502C4.61277 5.84105 4.2044 6.7043 4.11337 7.62767C4.02234 8.55105 4.2543 9.47742 4.76971 10.2489C5.28513 11.0205 6.05211 11.5894 6.93998 11.8588C7.82785 12.1283 8.78168 12.0815 9.63894 11.7265C10.4962 11.3715 11.2038 10.7303 11.6413 9.91205C12.0788 9.09381 12.219 8.14919 12.0381 7.23915C11.8572 6.32911 11.3663 5.50995 10.6492 4.92124C9.93199 4.33254 9.03288 4.01071 8.10503 4.0106V1.33691Z" fill="black"/>
</mask>
<g mask="url(#mask0_330_878)">
<path d="M8.10517 1.33688V0.668457H7.43675V1.33688H8.10517ZM3.37943 3.29468L3.85201 2.82211L3.37943 2.34954L2.90686 2.82211L3.37943 3.29468ZM5.26973 5.18498L5.7423 5.65755L6.21554 5.18498L5.7423 4.71241L5.26973 5.18498ZM8.10517 4.01056H7.43675V4.67899H8.10517V4.01056ZM8.10517 2.0053C9.49707 2.00525 10.8459 2.48786 11.9219 3.37088L12.7694 2.33751C11.4545 1.25838 9.80618 0.668529 8.10517 0.668457V2.0053ZM11.9219 3.37088C12.9976 4.25383 13.7339 5.48242 14.0053 6.84734L15.3168 6.58666C14.9849 4.91833 14.0843 3.41667 12.7694 2.33751L11.9219 3.37088ZM14.0053 6.84734C14.2769 8.21254 14.0667 9.62966 13.4104 10.8572L14.5895 11.4869C15.3915 9.98675 15.6485 8.25501 15.3168 6.58666L14.0053 6.84734ZM13.4104 10.8572C12.7543 12.0845 11.693 13.0464 10.4072 13.579L10.9186 14.8143C12.4903 14.1632 13.7877 12.9873 14.5895 11.4869L13.4104 10.8572ZM10.4072 13.579C9.12127 14.1116 7.69046 14.1817 6.35859 13.7775L5.9709 15.0569C7.59854 15.5507 9.34705 15.465 10.9186 14.8143L10.4072 13.579ZM6.35859 13.7775C5.02693 13.3735 3.87654 12.5203 3.10337 11.3632L1.99179 12.1058C2.93686 13.5202 4.34309 14.5631 5.9709 15.0569L6.35859 13.7775ZM3.10337 11.3632C2.33005 10.2061 1.98186 8.81661 2.11812 7.43154L0.787963 7.30053C0.620974 8.99346 1.04618 10.6919 1.99112 12.1065L3.10337 11.3632ZM2.11812 7.43154C2.25457 6.04639 2.8671 4.7514 3.85134 3.76726L2.90686 2.82211C1.70398 4.02494 0.954721 5.60764 0.787963 7.30053L2.11812 7.43154ZM2.90619 3.76726L4.79649 5.65755L5.74163 4.71241L3.85201 2.82211L2.90619 3.76726ZM4.79649 4.71241C4.03113 5.47797 3.55557 6.48523 3.44962 7.56255L4.77911 7.69357C4.85474 6.92398 5.19491 6.20443 5.74163 5.65755L4.79649 4.71241ZM3.44962 7.56255C3.34353 8.63982 3.61357 9.72054 4.21496 10.6206L5.32654 9.87797C4.89686 9.23509 4.70339 8.4631 4.77911 7.69357L3.44962 7.56255ZM4.21496 10.6206C4.81627 11.5207 5.71175 12.1845 6.74761 12.4988L7.13462 11.2195C6.39492 10.9949 5.75595 10.5208 5.32654 9.87797L4.21496 10.6206ZM6.74761 12.4988C7.78338 12.8128 8.8953 12.758 9.8952 12.3438L9.38453 11.1085C8.67039 11.4044 7.87442 11.4437 7.13462 11.2195L6.74761 12.4988ZM9.8952 12.3438C10.8956 11.9298 11.7214 11.1816 12.232 10.2269L11.0536 9.59656C10.6889 10.2785 10.099 10.8128 9.38453 11.1085L9.8952 12.3438ZM12.232 10.2269C12.7424 9.27209 12.9058 8.16985 12.6946 7.10803L11.3831 7.36871C11.5341 8.12717 11.4181 8.91451 11.0536 9.59656L12.232 10.2269ZM12.6946 7.10803C12.4829 6.04656 11.9099 5.09129 11.073 4.40493L10.2247 5.43831C10.8225 5.9289 11.2316 6.61159 11.3824 7.37005L12.6946 7.10803ZM11.073 4.40493C10.2364 3.71805 9.18759 3.34246 8.10517 3.34214V4.67899C8.8784 4.67899 9.6277 4.9471 10.2254 5.43764L11.073 4.40493ZM8.77359 4.01056V1.33688H7.43675V4.01056H8.77359Z" fill="white"/>
</g>
<path d="M8.10473 8.02123L3.42578 3.34229" stroke="white" stroke-width="1.33684" stroke-linecap="round"/>
</g>
<defs>
<clipPath id="clip0_330_878">
<rect width="16.0421" height="16.0421" fill="white" transform="translate(0.0839844)"/>
</clipPath>
</defs>
</svg>
