<svg width="17" height="17" viewBox="0 0 17 17" fill="none" xmlns="http://www.w3.org/2000/svg">
<path d="M9.40045 10.0264C9.58984 10.0264 9.75427 9.95688 9.89375 9.81784C10.0332 9.67881 10.1027 9.51438 10.1023 9.32455C10.1018 9.13472 10.0323 8.97051 9.89375 8.83192C9.75516 8.69334 9.59073 8.6236 9.40045 8.62271C9.21017 8.62182 9.04596 8.69156 8.90782 8.83192C8.76968 8.97229 8.69994 9.1365 8.69861 9.32455C8.69727 9.5126 8.76701 9.67703 8.90782 9.81784C9.04864 9.95866 9.21285 10.0282 9.40045 10.0264ZM8.89913 7.88744H9.90177C9.90177 7.56437 9.93519 7.32775 10.002 7.17758C10.0689 7.02741 10.2248 6.82956 10.4699 6.58402C10.8041 6.24981 11.0269 5.97977 11.1383 5.77389C11.2498 5.56802 11.3055 5.32561 11.3055 5.04665C11.3055 4.54534 11.1299 4.13604 10.7787 3.81876C10.4276 3.50149 9.96816 3.34262 9.40045 3.34218C8.9437 3.34218 8.54554 3.47029 8.20598 3.72652C7.86642 3.98275 7.62958 4.32253 7.49545 4.74586L8.39782 5.11349C8.49808 4.83499 8.63466 4.62622 8.80756 4.48718C8.98046 4.34815 9.17809 4.27841 9.40045 4.27797C9.66782 4.27797 9.88506 4.35328 10.0522 4.50389C10.2193 4.65451 10.3028 4.85771 10.3028 5.11349C10.3028 5.26946 10.2583 5.41718 10.1691 5.55666C10.08 5.69614 9.92405 5.87149 9.70124 6.08271C9.33361 6.40578 9.10813 6.65933 9.0248 6.84337C8.94147 7.02741 8.89958 7.37543 8.89913 7.88744ZM5.38992 12.0317C5.02229 12.0317 4.70769 11.9009 4.44611 11.6393C4.18454 11.3777 4.05353 11.0629 4.05308 10.6948V2.67376C4.05308 2.30613 4.18409 1.99152 4.44611 1.72995C4.70813 1.46837 5.02274 1.33736 5.38992 1.33691H13.411C13.7786 1.33691 14.0934 1.46792 14.3555 1.72995C14.6175 1.99197 14.7483 2.30657 14.7478 2.67376V10.6948C14.7478 11.0624 14.617 11.3773 14.3555 11.6393C14.0939 11.9013 13.7791 12.0321 13.411 12.0317H5.38992ZM2.71624 14.7053C2.34861 14.7053 2.034 14.5746 1.77243 14.313C1.51085 14.0514 1.37984 13.7366 1.37939 13.3685V4.0106H2.71624V13.3685H12.0741V14.7053H2.71624Z" fill="white"/>
</svg>
