<svg width="16" height="16" viewBox="0 0 16 16" fill="none" xmlns="http://www.w3.org/2000/svg">
<path d="M9.3335 10.0002C9.52239 10.0002 9.68639 9.93083 9.8255 9.79216C9.96461 9.6535 10.0339 9.4895 10.0335 9.30016C10.0331 9.11083 9.96372 8.94705 9.8255 8.80883C9.68727 8.67061 9.52327 8.60105 9.3335 8.60016C9.14372 8.59927 8.97994 8.66883 8.84216 8.80883C8.70438 8.94883 8.63483 9.11261 8.6335 9.30016C8.63216 9.48772 8.70172 9.65172 8.84216 9.79216C8.98261 9.93261 9.14639 10.0019 9.3335 10.0002ZM8.8335 7.86683H9.8335C9.8335 7.54461 9.86683 7.30861 9.9335 7.15883C10.0002 7.00905 10.1557 6.81172 10.4002 6.56683C10.7335 6.2335 10.9557 5.96416 11.0668 5.75883C11.1779 5.5535 11.2335 5.31172 11.2335 5.0335C11.2335 4.5335 11.0584 4.12527 10.7082 3.80883C10.3579 3.49238 9.89972 3.33394 9.3335 3.3335C8.87794 3.3335 8.48083 3.46127 8.14216 3.71683C7.8035 3.97238 7.56727 4.31127 7.4335 4.7335L8.3335 5.10016C8.4335 4.82238 8.56972 4.61416 8.74216 4.4755C8.91461 4.33683 9.11172 4.26727 9.3335 4.26683C9.60016 4.26683 9.81683 4.34194 9.9835 4.49216C10.1502 4.64238 10.2335 4.84505 10.2335 5.10016C10.2335 5.25572 10.1891 5.40305 10.1002 5.54216C10.0113 5.68127 9.85572 5.85616 9.6335 6.06683C9.26683 6.38905 9.04194 6.64194 8.95883 6.8255C8.87572 7.00905 8.83394 7.35616 8.8335 7.86683ZM5.3335 12.0002C4.96683 12.0002 4.65305 11.8697 4.39216 11.6088C4.13127 11.3479 4.00061 11.0339 4.00016 10.6668V2.66683C4.00016 2.30016 4.13083 1.98638 4.39216 1.7255C4.6535 1.46461 4.96727 1.33394 5.3335 1.3335H13.3335C13.7002 1.3335 14.0142 1.46416 14.2755 1.7255C14.5368 1.98683 14.6673 2.30061 14.6668 2.66683V10.6668C14.6668 11.0335 14.5364 11.3475 14.2755 11.6088C14.0146 11.8702 13.7006 12.0006 13.3335 12.0002H5.3335ZM2.66683 14.6668C2.30016 14.6668 1.98639 14.5364 1.7255 14.2755C1.46461 14.0146 1.33394 13.7006 1.3335 13.3335V4.00016H2.66683V13.3335H12.0002V14.6668H2.66683Z" fill="#667085"/>
</svg>
